<mxfile host="app.diagrams.net" modified="2024-04-22T13:35:52.474Z" agent="Mozilla/5.0 (Windows NT 10.0; Win64; x64) AppleWebKit/537.36 (KHTML, like Gecko) Chrome/123.0.0.0 Safari/537.36" etag="V57AyYFA1VtTZHmko0n_" version="24.2.1" type="device">
  <diagram name="StrÃ¡nka-1" id="p0IsdX1iNlk7CXN1Zqig">
    <mxGraphModel dx="1032" dy="446" grid="1" gridSize="10" guides="1" tooltips="1" connect="1" arrows="1" fold="1" page="1" pageScale="1" pageWidth="827" pageHeight="1169" math="0" shadow="0">
      <root>
        <mxCell id="0" />
        <mxCell id="1" parent="0" />
        <mxCell id="O-90IEhZYs-1YyvDov0J-1" value="client poll()" style="rounded=1;whiteSpace=wrap;html=1;" vertex="1" parent="1">
          <mxGeometry x="40" y="80" width="80" height="40" as="geometry" />
        </mxCell>
        <mxCell id="O-90IEhZYs-1YyvDov0J-2" value="UDP/TCP?" style="rhombus;whiteSpace=wrap;html=1;" vertex="1" parent="1">
          <mxGeometry x="160" y="60" width="80" height="80" as="geometry" />
        </mxCell>
        <mxCell id="O-90IEhZYs-1YyvDov0J-4" value="" style="endArrow=classic;html=1;rounded=0;exitX=1;exitY=0.5;exitDx=0;exitDy=0;entryX=0;entryY=0.5;entryDx=0;entryDy=0;" edge="1" parent="1" source="O-90IEhZYs-1YyvDov0J-1" target="O-90IEhZYs-1YyvDov0J-2">
          <mxGeometry width="50" height="50" relative="1" as="geometry">
            <mxPoint x="390" y="320" as="sourcePoint" />
            <mxPoint x="440" y="270" as="targetPoint" />
          </mxGeometry>
        </mxCell>
        <mxCell id="O-90IEhZYs-1YyvDov0J-8" value="handleUDP" style="rounded=1;whiteSpace=wrap;html=1;" vertex="1" parent="1">
          <mxGeometry x="320" y="80" width="100" height="40" as="geometry" />
        </mxCell>
        <mxCell id="O-90IEhZYs-1YyvDov0J-9" value="" style="endArrow=classic;html=1;rounded=0;exitX=1;exitY=0.5;exitDx=0;exitDy=0;entryX=0;entryY=0.5;entryDx=0;entryDy=0;" edge="1" parent="1" source="O-90IEhZYs-1YyvDov0J-2" target="O-90IEhZYs-1YyvDov0J-8">
          <mxGeometry width="50" height="50" relative="1" as="geometry">
            <mxPoint x="340" y="220" as="sourcePoint" />
            <mxPoint x="390" y="170" as="targetPoint" />
          </mxGeometry>
        </mxCell>
        <mxCell id="O-90IEhZYs-1YyvDov0J-10" value="udp" style="edgeLabel;html=1;align=center;verticalAlign=middle;resizable=0;points=[];" vertex="1" connectable="0" parent="O-90IEhZYs-1YyvDov0J-9">
          <mxGeometry x="0.2328" y="1" relative="1" as="geometry">
            <mxPoint x="-10" y="1" as="offset" />
          </mxGeometry>
        </mxCell>
        <mxCell id="O-90IEhZYs-1YyvDov0J-11" value="" style="endArrow=classic;html=1;rounded=0;exitX=0.5;exitY=1;exitDx=0;exitDy=0;entryX=0.5;entryY=0;entryDx=0;entryDy=0;" edge="1" parent="1" source="O-90IEhZYs-1YyvDov0J-2" target="O-90IEhZYs-1YyvDov0J-13">
          <mxGeometry width="50" height="50" relative="1" as="geometry">
            <mxPoint x="340" y="220" as="sourcePoint" />
            <mxPoint x="200" y="170" as="targetPoint" />
          </mxGeometry>
        </mxCell>
        <mxCell id="O-90IEhZYs-1YyvDov0J-14" value="tcp" style="edgeLabel;html=1;align=center;verticalAlign=middle;resizable=0;points=[];" vertex="1" connectable="0" parent="O-90IEhZYs-1YyvDov0J-11">
          <mxGeometry x="-0.2828" y="2" relative="1" as="geometry">
            <mxPoint as="offset" />
          </mxGeometry>
        </mxCell>
        <mxCell id="O-90IEhZYs-1YyvDov0J-13" value="new TCP?" style="rhombus;whiteSpace=wrap;html=1;" vertex="1" parent="1">
          <mxGeometry x="160" y="180" width="80" height="80" as="geometry" />
        </mxCell>
        <mxCell id="O-90IEhZYs-1YyvDov0J-15" value="handleNewTCPClient" style="rounded=1;whiteSpace=wrap;html=1;" vertex="1" parent="1">
          <mxGeometry x="310" y="200" width="120" height="40" as="geometry" />
        </mxCell>
        <mxCell id="O-90IEhZYs-1YyvDov0J-16" value="" style="endArrow=classic;html=1;rounded=0;exitX=1;exitY=0.5;exitDx=0;exitDy=0;entryX=0;entryY=0.5;entryDx=0;entryDy=0;" edge="1" parent="1" source="O-90IEhZYs-1YyvDov0J-13" target="O-90IEhZYs-1YyvDov0J-15">
          <mxGeometry width="50" height="50" relative="1" as="geometry">
            <mxPoint x="340" y="220" as="sourcePoint" />
            <mxPoint x="390" y="170" as="targetPoint" />
          </mxGeometry>
        </mxCell>
        <mxCell id="O-90IEhZYs-1YyvDov0J-17" value="yes" style="edgeLabel;html=1;align=center;verticalAlign=middle;resizable=0;points=[];" vertex="1" connectable="0" parent="O-90IEhZYs-1YyvDov0J-16">
          <mxGeometry x="0.4089" relative="1" as="geometry">
            <mxPoint x="-20" as="offset" />
          </mxGeometry>
        </mxCell>
        <mxCell id="O-90IEhZYs-1YyvDov0J-18" value="handleTCPClient" style="rounded=1;whiteSpace=wrap;html=1;" vertex="1" parent="1">
          <mxGeometry x="150" y="320" width="100" height="40" as="geometry" />
        </mxCell>
        <mxCell id="O-90IEhZYs-1YyvDov0J-19" value="" style="endArrow=classic;html=1;rounded=0;exitX=0.5;exitY=1;exitDx=0;exitDy=0;entryX=0.5;entryY=0;entryDx=0;entryDy=0;" edge="1" parent="1" source="O-90IEhZYs-1YyvDov0J-13" target="O-90IEhZYs-1YyvDov0J-18">
          <mxGeometry width="50" height="50" relative="1" as="geometry">
            <mxPoint x="340" y="290" as="sourcePoint" />
            <mxPoint x="390" y="240" as="targetPoint" />
          </mxGeometry>
        </mxCell>
        <mxCell id="O-90IEhZYs-1YyvDov0J-20" value="no" style="edgeLabel;html=1;align=center;verticalAlign=middle;resizable=0;points=[];" vertex="1" connectable="0" parent="O-90IEhZYs-1YyvDov0J-19">
          <mxGeometry x="-0.2046" y="2" relative="1" as="geometry">
            <mxPoint as="offset" />
          </mxGeometry>
        </mxCell>
        <mxCell id="O-90IEhZYs-1YyvDov0J-21" value="" style="endArrow=classic;html=1;rounded=0;entryX=1;entryY=0.5;entryDx=0;entryDy=0;exitX=0.5;exitY=1;exitDx=0;exitDy=0;" edge="1" parent="1" source="O-90IEhZYs-1YyvDov0J-15" target="O-90IEhZYs-1YyvDov0J-18">
          <mxGeometry width="50" height="50" relative="1" as="geometry">
            <mxPoint x="380" y="340" as="sourcePoint" />
            <mxPoint x="390" y="240" as="targetPoint" />
            <Array as="points">
              <mxPoint x="370" y="340" />
            </Array>
          </mxGeometry>
        </mxCell>
        <mxCell id="O-90IEhZYs-1YyvDov0J-22" value="creating client object" style="edgeLabel;html=1;align=center;verticalAlign=middle;resizable=0;points=[];" vertex="1" connectable="0" parent="O-90IEhZYs-1YyvDov0J-21">
          <mxGeometry x="-0.4884" y="2" relative="1" as="geometry">
            <mxPoint as="offset" />
          </mxGeometry>
        </mxCell>
        <mxCell id="O-90IEhZYs-1YyvDov0J-23" value="newUDP?" style="rhombus;whiteSpace=wrap;html=1;" vertex="1" parent="1">
          <mxGeometry x="480" y="60" width="80" height="80" as="geometry" />
        </mxCell>
        <mxCell id="O-90IEhZYs-1YyvDov0J-24" value="" style="endArrow=classic;html=1;rounded=0;exitX=1;exitY=0.5;exitDx=0;exitDy=0;entryX=0;entryY=0.5;entryDx=0;entryDy=0;" edge="1" parent="1" source="O-90IEhZYs-1YyvDov0J-8" target="O-90IEhZYs-1YyvDov0J-23">
          <mxGeometry width="50" height="50" relative="1" as="geometry">
            <mxPoint x="450" y="230" as="sourcePoint" />
            <mxPoint x="500" y="180" as="targetPoint" />
          </mxGeometry>
        </mxCell>
        <mxCell id="O-90IEhZYs-1YyvDov0J-25" value="handleUDPClient" style="rounded=1;whiteSpace=wrap;html=1;" vertex="1" parent="1">
          <mxGeometry x="470" y="200" width="100" height="40" as="geometry" />
        </mxCell>
        <mxCell id="O-90IEhZYs-1YyvDov0J-26" value="" style="endArrow=classic;html=1;rounded=0;exitX=0.5;exitY=1;exitDx=0;exitDy=0;entryX=0.5;entryY=0;entryDx=0;entryDy=0;" edge="1" parent="1" source="O-90IEhZYs-1YyvDov0J-23" target="O-90IEhZYs-1YyvDov0J-25">
          <mxGeometry width="50" height="50" relative="1" as="geometry">
            <mxPoint x="570" y="180" as="sourcePoint" />
            <mxPoint x="620" y="130" as="targetPoint" />
          </mxGeometry>
        </mxCell>
        <mxCell id="O-90IEhZYs-1YyvDov0J-27" value="no" style="edgeLabel;html=1;align=center;verticalAlign=middle;resizable=0;points=[];" vertex="1" connectable="0" parent="O-90IEhZYs-1YyvDov0J-26">
          <mxGeometry x="-0.4713" relative="1" as="geometry">
            <mxPoint as="offset" />
          </mxGeometry>
        </mxCell>
        <mxCell id="O-90IEhZYs-1YyvDov0J-29" value="" style="endArrow=classic;html=1;rounded=0;exitX=1;exitY=0.5;exitDx=0;exitDy=0;entryX=1;entryY=0.5;entryDx=0;entryDy=0;" edge="1" parent="1" source="O-90IEhZYs-1YyvDov0J-23" target="O-90IEhZYs-1YyvDov0J-25">
          <mxGeometry width="50" height="50" relative="1" as="geometry">
            <mxPoint x="620" y="160" as="sourcePoint" />
            <mxPoint x="670" y="110" as="targetPoint" />
            <Array as="points">
              <mxPoint x="600" y="100" />
              <mxPoint x="600" y="220" />
            </Array>
          </mxGeometry>
        </mxCell>
        <mxCell id="O-90IEhZYs-1YyvDov0J-30" value="yes" style="edgeLabel;html=1;align=center;verticalAlign=middle;resizable=0;points=[];" vertex="1" connectable="0" parent="O-90IEhZYs-1YyvDov0J-29">
          <mxGeometry x="-0.2958" relative="1" as="geometry">
            <mxPoint as="offset" />
          </mxGeometry>
        </mxCell>
        <mxCell id="O-90IEhZYs-1YyvDov0J-31" value="creating client object" style="edgeLabel;html=1;align=center;verticalAlign=middle;resizable=0;points=[];" vertex="1" connectable="0" parent="O-90IEhZYs-1YyvDov0J-29">
          <mxGeometry x="0.2849" relative="1" as="geometry">
            <mxPoint as="offset" />
          </mxGeometry>
        </mxCell>
      </root>
    </mxGraphModel>
  </diagram>
</mxfile>
